# xmcd
#
# Track frame offsets:
# 150
# 15742
# 31242
# 48727
# 63885
# 81552
# 97629
# 112525
# 124407
# 138637
# 149227
# 162567
#
# Disc length: 2358 seconds
#
#
# Revision: 0
# Processed by: cddbd v1.5.1PL0 Copyright (c) Steve Scherf et al.
# Submitted via: FreeRIP 2.90 
#
DISCID=a809340c
DTITLE=Varios - Relíquias Sertanejas
DYEAR=1900
DGENRE=Country
TTITLE0=Cavalo Zaino
TTITLE1=Cabocla Tereza
TTITLE2=Tristeza do Jeca
TTITLE3=Chitaozinho e Chororo
TTITLE4=Menino da Porteira
TTITLE5=Chico Mulato
TTITLE6=Beijinho Doce
TTITLE7=Joao de Barro
TTITLE8=Pingo d'Agua
TTITLE9=Mineirinha
TTITLE10=Mourao da Porteira
TTITLE11=Canoeiro
EXTD=
EXTT0=
EXTT1=
EXTT2=
EXTT3=
EXTT4=
EXTT5=
EXTT6=
EXTT7=
EXTT8=
EXTT9=
EXTT10=
EXTT11=
PLAYORDER=
